<mxfile host="app.diagrams.net" modified="2022-12-13T12:46:01.905Z" agent="5.0 (Windows NT 10.0; Win64; x64) AppleWebKit/537.36 (KHTML, like Gecko) Chrome/108.0.0.0 Safari/537.36" etag="iQVlyMsLWdHCFaS_GNzl" version="20.6.2" type="github">
  <diagram id="prtHgNgQTEPvFCAcTncT" name="Page-1">
    <mxGraphModel dx="1422" dy="774" grid="1" gridSize="10" guides="1" tooltips="1" connect="1" arrows="1" fold="1" page="1" pageScale="1" pageWidth="500" pageHeight="550" math="0" shadow="0">
      <root>
        <mxCell id="0" />
        <mxCell id="1" parent="0" />
        <mxCell id="z87Oanw4fjWxXuA4zBtN-1" value="第一章&amp;nbsp; 绪论" style="rounded=1;whiteSpace=wrap;html=1;fillColor=#f5f5f5;fontColor=#333333;strokeColor=#666666;" parent="1" vertex="1">
          <mxGeometry x="150.5" y="10" width="200" height="60" as="geometry" />
        </mxCell>
        <mxCell id="z87Oanw4fjWxXuA4zBtN-3" value="" style="shape=singleArrow;direction=south;whiteSpace=wrap;html=1;" parent="1" vertex="1">
          <mxGeometry x="235.5" y="70" width="30" height="30" as="geometry" />
        </mxCell>
        <mxCell id="z87Oanw4fjWxXuA4zBtN-7" value="第二章&amp;nbsp; 相关工作与技术" style="rounded=1;whiteSpace=wrap;html=1;fillColor=#f5f5f5;fontColor=#333333;strokeColor=#666666;" parent="1" vertex="1">
          <mxGeometry x="150.5" y="100" width="200" height="60" as="geometry" />
        </mxCell>
        <mxCell id="z87Oanw4fjWxXuA4zBtN-9" value="" style="shape=singleArrow;direction=south;whiteSpace=wrap;html=1;" parent="1" vertex="1">
          <mxGeometry x="235.5" y="160" width="30" height="30" as="geometry" />
        </mxCell>
        <mxCell id="z87Oanw4fjWxXuA4zBtN-11" value="" style="rounded=1;whiteSpace=wrap;html=1;verticalAlign=top;horizontal=1;fontSize=13;" parent="1" vertex="1">
          <mxGeometry x="83" y="190" width="335" height="260" as="geometry" />
        </mxCell>
        <mxCell id="z87Oanw4fjWxXuA4zBtN-12" value="&lt;font style=&quot;font-size: 12px;&quot;&gt;第三章&amp;nbsp; 问题描述与系统框架&lt;/font&gt;" style="rounded=1;whiteSpace=wrap;html=1;fontSize=13;fillColor=#f5f5f5;fontColor=#333333;strokeColor=#666666;" parent="1" vertex="1">
          <mxGeometry x="150.5" y="200" width="200" height="60" as="geometry" />
        </mxCell>
        <mxCell id="z87Oanw4fjWxXuA4zBtN-13" value="" style="shape=singleArrow;direction=south;whiteSpace=wrap;html=1;" parent="1" vertex="1">
          <mxGeometry x="235" y="260" width="30" height="30" as="geometry" />
        </mxCell>
        <mxCell id="z87Oanw4fjWxXuA4zBtN-14" value="" style="shape=singleArrow;direction=south;whiteSpace=wrap;html=1;" parent="1" vertex="1">
          <mxGeometry x="235.5" y="350" width="30" height="30" as="geometry" />
        </mxCell>
        <mxCell id="z87Oanw4fjWxXuA4zBtN-15" value="&lt;font style=&quot;font-size: 11px;&quot;&gt;第四章 基于对比学习的联邦知识融合算法&lt;/font&gt;" style="rounded=1;whiteSpace=wrap;html=1;fontSize=13;fillColor=#f5f5f5;fontColor=#333333;strokeColor=#666666;" parent="1" vertex="1">
          <mxGeometry x="190" y="290" width="120" height="60" as="geometry" />
        </mxCell>
        <mxCell id="z87Oanw4fjWxXuA4zBtN-16" value="&lt;font style=&quot;font-size: 11px;&quot;&gt;第五章 原型增强联邦知识融合算法&lt;/font&gt;" style="rounded=1;whiteSpace=wrap;html=1;fontSize=13;fillColor=#f5f5f5;fontColor=#333333;strokeColor=#666666;" parent="1" vertex="1">
          <mxGeometry x="190" y="380" width="120" height="60" as="geometry" />
        </mxCell>
        <mxCell id="z87Oanw4fjWxXuA4zBtN-17" value="" style="shape=singleArrow;direction=south;whiteSpace=wrap;html=1;" parent="1" vertex="1">
          <mxGeometry x="235.5" y="450" width="30" height="30" as="geometry" />
        </mxCell>
        <mxCell id="z87Oanw4fjWxXuA4zBtN-20" value="&lt;font style=&quot;font-size: 12px;&quot;&gt;第六章&amp;nbsp; 总结与展望&lt;/font&gt;" style="rounded=1;whiteSpace=wrap;html=1;fontSize=13;fillColor=#f5f5f5;fontColor=#333333;strokeColor=#666666;" parent="1" vertex="1">
          <mxGeometry x="145.5" y="480" width="210" height="60" as="geometry" />
        </mxCell>
      </root>
    </mxGraphModel>
  </diagram>
</mxfile>
